<svg width="218" height="185" viewBox="0 0 218 185" fill="none" xmlns="http://www.w3.org/2000/svg">
<path d="M23.5 101C15.1 95 7.66667 78.8333 5 71.5C10.1667 75.6667 21.3 84.5 24.5 86.5C28.5 89 34 93 49 95C61 96.6 69 89.3333 71.5 85.5L73 100.5C69.3333 102.5 60.8 106.8 56 108C50 109.5 34 108.5 23.5 101Z" fill="white"/>
<path d="M70 76C69 76.8333 64.7 80 55.5 86C46.3828 91.946 18.5076 78.7413 5.35453 71.2038C9.73635 77.3026 22.7 90.7 39.5 95.5C56.3 100.3 67.5 92.1667 71 87.5L70 76Z" fill="#19D3DA"/>
<path d="M36.5 107C54.9 111 67.6667 103.833 72.5 100.5L71.5 74.5C70.5 76 59.5 87.5 46 86.5C37.5473 85.8739 15 75 4 69C6 78.1667 18.1 103 36.5 107Z" stroke="black" stroke-width="5"/>
<path d="M44.5642 69.5C51.7642 76.7 68.8975 80.8333 76.5642 82L81.5642 65C81.0642 65.1667 78.7642 65.6 73.5642 66C67.0642 66.5 59.0642 63 47.5642 55C38.3642 48.6 34.0642 37 33.0642 32C32.2309 33.5 30.6642 37.5 31.0642 41.5C31.5642 46.5 35.5642 60.5 44.5642 69.5Z" fill="white"/>
<path d="M34 77C43.2 88.2 63.5326 96 71.6993 97.5L76.1993 81C75.366 80.8333 67.2775 82.5805 52.5 74C37 65 33 43.5 32.5 32C30.6667 40.6667 24.8 65.8 34 77Z" fill="#19D3DA"/>
<path d="M30.0363 69.5C34.8363 86.3 60.0363 96.1667 72.0363 99L81.5 65C79.1667 64.8333 66.5363 68 54.5363 60C42.5086 51.9816 34.3697 39.8333 33.0363 32C30.0363 37.5 25.2363 52.7 30.0363 69.5Z" stroke="black" stroke-width="5"/>
<circle cx="27.5" cy="171.5" r="13.5" fill="#19D3DA"/>
<circle cx="27.5" cy="171.5" r="5.5" fill="white"/>
<circle cx="27.5" cy="171.5" r="11.5" stroke="black" stroke-width="4"/>
<path d="M105 132C97.8 143.6 68 159.5 54 166L48.5 167C55.6667 162 69.4 148 71 146C73 143.5 84 131.5 89 124.5C93 118.9 94.3333 112.667 95.5 110C96.8333 105.833 99.7 97.9 100.5 91.5C101.5 83.5 100.5 86 99.5 81C98.7 77 102.167 67.3333 102.5 66.5C103.167 65 105.822 60.328 110 58.5C118 55 123 54 132.5 54C138.667 53 150 51.3 146 52.5C142 53.7 133.333 60 129.5 63C126.167 65.5 119 72.6 117 81C115 89.4 116.167 94.8333 117 96.5V107C116 110.5 112.2 120.4 105 132Z" fill="white"/>
<path d="M97 117C91.2561 136.059 73 156 55.5 162.5C64.8333 127 84.2 54.2 85 51C86 47 90.4415 37.4704 96 35C100.5 33 108.5 36.5 111 38C114.5 40.6667 123.4 47.6 127 50C130.6 52.4 137.167 54.8333 139.5 54.5C134 57.6667 122 53.5 111 67C94.021 87.8378 108 80.5 97 117Z" fill="#19D3DA"/>
<path d="M54 165L86.1788 46.5185C89.6983 36.2603 99.5648 28.2746 113.33 39.3378C129.922 52.6734 135.955 54.725 144 53.6992" stroke="black" stroke-width="5"/>
<path d="M149.5 51C130 61 113.868 66.8475 116.656 96.5C120.14 133.566 70.3568 163.184 38 170.5" stroke="black" stroke-width="5"/>
<circle cx="102.5" cy="53.5" r="4.5" fill="black"/>
<path d="M150.5 34C145.7 37.2 145.833 42.6667 146.5 45.5C148 48 150.338 53.2752 152.338 55.2752C154.338 57.2752 161.838 56.7752 165.338 56.2752C168.672 55.4418 175.238 52.5752 176.838 51.7752C178.838 50.7752 179.838 53.7752 180.838 53.7752C181.638 53.7752 183.167 50.3333 183.5 49C190.667 46.3333 204.473 42.9247 209.797 40.2752C218.838 35.7752 216.922 28.1667 215.588 25L217.088 23.7752L215.588 18.2752L209 20.5L211 26C214.5 25.5 214.042 28.2752 213 32.7752C212.093 36.6915 200.172 40.9418 193.838 42.7752C189.505 44.1085 182.5 47.2 182.5 46C182.5 44.8 178.172 43.7752 176.838 43.7752L175 48C173.5 49 168.938 50.1752 165.338 51.7752C161.738 53.3752 156.505 51.7752 154.338 50.7752C154.338 50.4418 153.738 49.1752 151.338 46.7752C148.938 44.3752 150.338 40.7752 151.338 39.2752C154.838 36.1085 162.1 29.5 164.5 27.5C167.5 25 168 27.5 169 26.5C169.8 25.7 170.005 23.2752 169.838 22.2752C176.005 17.1085 189.038 6.77516 191.838 4.77516C194.638 2.77516 198.005 4.27516 199.338 5.27516V7.77516L204.338 11.2752L208.338 5.27516L203.838 2.27516L201.338 2.77516C201.172 2.27516 198.938 1.07516 195.338 0.275156C191.738 -0.524844 189.505 0.608489 188.838 1.27516L167.338 19.7752C165.838 19.2752 162.838 18.5752 162.838 19.7752C162.838 20.9752 162.333 23.1085 161.5 23.7752C159.833 25.6085 155.3 30.8 150.5 34Z" fill="black"/>
</svg>
