<svg width="203" height="53" viewBox="0 0 203 53" fill="none" xmlns="http://www.w3.org/2000/svg">
<path d="M26.88 18.68C31.5467 18.68 33.88 21.5867 33.88 27.4V38.08C33.88 38.64 33.7067 39.1067 33.36 39.48C33.0133 39.8267 32.56 40 32 40C31.44 40 30.9733 39.8133 30.6 39.44C30.2533 39.0667 30.08 38.6133 30.08 38.08V27.44C30.08 23.9467 28.6133 22.2 25.68 22.2C24.64 22.2 23.6933 22.44 22.84 22.92C22.0133 23.3733 21.36 24 20.88 24.8C20.4267 25.6 20.2 26.48 20.2 27.44V38.08C20.2 38.6133 20.0133 39.0667 19.64 39.44C19.2933 39.8133 18.84 40 18.28 40C17.72 40 17.2667 39.8267 16.92 39.48C16.5733 39.1067 16.4 38.64 16.4 38.08V27.4C16.4 25.8267 16.0667 24.5733 15.4 23.64C14.7333 22.68 13.6267 22.2 12.08 22.2C10.5067 22.2 9.2 22.7067 8.16 23.72C7.14667 24.7067 6.64 25.9333 6.64 27.4V38.08C6.64 38.6133 6.45333 39.0667 6.08 39.44C5.73333 39.8133 5.28 40 4.72 40C4.16 40 3.70667 39.8267 3.36 39.48C3.01333 39.1067 2.84 38.64 2.84 38.08V20.96C2.84 20.4267 3.01333 19.9733 3.36 19.6C3.73333 19.2267 4.18667 19.04 4.72 19.04C5.28 19.04 5.73333 19.2267 6.08 19.6C6.45333 19.9733 6.64 20.4267 6.64 20.96V22.36C7.33333 21.32 8.25333 20.4533 9.4 19.76C10.5733 19.04 11.84 18.68 13.2 18.68C16.5067 18.68 18.6533 20.1467 19.64 23.08C20.2267 21.96 21.2 20.9467 22.56 20.04C23.92 19.1333 25.36 18.68 26.88 18.68ZM57.9588 28.72C57.9321 29.2 57.7321 29.6133 57.3588 29.96C56.9854 30.28 56.5454 30.44 56.0388 30.44H41.9588C42.1454 32.3867 42.8788 33.9467 44.1588 35.12C45.4654 36.2933 47.0521 36.88 48.9188 36.88C50.1988 36.88 51.2388 36.6933 52.0388 36.32C52.8388 35.9467 53.5454 35.4667 54.1588 34.88C54.5588 34.64 54.9454 34.52 55.3188 34.52C55.7721 34.52 56.1454 34.68 56.4388 35C56.7588 35.32 56.9187 35.6933 56.9187 36.12C56.9187 36.68 56.6521 37.1867 56.1188 37.64C55.3454 38.4133 54.3188 39.0667 53.0388 39.6C51.7588 40.1333 50.4521 40.4 49.1188 40.4C46.9588 40.4 45.0521 39.9467 43.3988 39.04C41.7721 38.1333 40.5054 36.8667 39.5988 35.24C38.7188 33.6133 38.2788 31.7733 38.2788 29.72C38.2788 27.48 38.7321 25.52 39.6388 23.84C40.5721 22.1333 41.7854 20.8267 43.2788 19.92C44.7988 19.0133 46.4254 18.56 48.1588 18.56C49.8654 18.56 51.4654 19 52.9588 19.88C54.4521 20.76 55.6521 21.9733 56.5588 23.52C57.4654 25.0667 57.9321 26.8 57.9588 28.72ZM48.1588 22.08C46.6654 22.08 45.3721 22.5067 44.2788 23.36C43.1854 24.1867 42.4654 25.48 42.1188 27.24H53.9188V26.92C53.7854 25.5067 53.1454 24.3467 51.9988 23.44C50.8788 22.5333 49.5988 22.08 48.1588 22.08ZM79.3713 10.4C79.9313 10.4 80.3846 10.5867 80.7313 10.96C81.1046 11.3067 81.2913 11.76 81.2913 12.32V38.08C81.2913 38.6133 81.1046 39.0667 80.7313 39.44C80.3846 39.8133 79.9313 40 79.3713 40C78.8113 40 78.3579 39.8267 78.0113 39.48C77.6646 39.1067 77.4913 38.64 77.4913 38.08V36.96C76.8246 37.92 75.8779 38.7333 74.6513 39.4C73.4513 40.0667 72.1579 40.4 70.7713 40.4C68.9579 40.4 67.3179 39.9333 65.8513 39C64.3846 38.0667 63.2246 36.7733 62.3713 35.12C61.5179 33.44 61.0913 31.56 61.0913 29.48C61.0913 27.4 61.5046 25.5333 62.3313 23.88C63.1846 22.2 64.3446 20.8933 65.8113 19.96C67.2779 19.0267 68.8913 18.56 70.6513 18.56C72.0646 18.56 73.3713 18.8533 74.5713 19.44C75.7713 20.0267 76.7446 20.7867 77.4913 21.72V12.32C77.4913 11.76 77.6646 11.3067 78.0113 10.96C78.3579 10.5867 78.8113 10.4 79.3713 10.4ZM71.2113 36.88C72.4646 36.88 73.5713 36.56 74.5313 35.92C75.5179 35.28 76.2779 34.4 76.8113 33.28C77.3713 32.16 77.6513 30.8933 77.6513 29.48C77.6513 28.0933 77.3713 26.84 76.8113 25.72C76.2779 24.5733 75.5179 23.68 74.5313 23.04C73.5713 22.4 72.4646 22.08 71.2113 22.08C69.9579 22.08 68.8379 22.4 67.8513 23.04C66.8913 23.68 66.1313 24.5733 65.5713 25.72C65.0379 26.84 64.7713 28.0933 64.7713 29.48C64.7713 30.8933 65.0379 32.16 65.5713 33.28C66.1313 34.4 66.8913 35.28 67.8513 35.92C68.8379 36.56 69.9579 36.88 71.2113 36.88ZM90.5416 38.08C90.5416 38.6133 90.3549 39.0667 89.9816 39.44C89.6349 39.8133 89.1816 40 88.6216 40C88.0882 40 87.6349 39.8133 87.2616 39.44C86.9149 39.0667 86.7416 38.6133 86.7416 38.08V20.76C86.7416 20.2267 86.9149 19.7733 87.2616 19.4C87.6349 19.0267 88.0882 18.84 88.6216 18.84C89.1816 18.84 89.6349 19.0267 89.9816 19.4C90.3549 19.7733 90.5416 20.2267 90.5416 20.76V38.08ZM88.6216 16.2C87.8482 16.2 87.2882 16.0667 86.9416 15.8C86.6216 15.5067 86.4616 15.0533 86.4616 14.44V13.8C86.4616 13.16 86.6349 12.7067 86.9816 12.44C87.3549 12.1733 87.9149 12.04 88.6616 12.04C89.4082 12.04 89.9416 12.1867 90.2616 12.48C90.6082 12.7467 90.7816 13.1867 90.7816 13.8V14.44C90.7816 15.08 90.6082 15.5333 90.2616 15.8C89.9149 16.0667 89.3682 16.2 88.6216 16.2ZM105.124 18.56C107.231 18.56 108.977 18.8933 110.364 19.56C111.777 20.2267 112.484 21.08 112.484 22.12C112.484 22.5733 112.337 22.9867 112.044 23.36C111.751 23.7067 111.377 23.88 110.924 23.88C110.577 23.88 110.297 23.8267 110.084 23.72C109.897 23.6133 109.631 23.44 109.284 23.2C109.124 23.04 108.871 22.8533 108.524 22.64C108.204 22.48 107.751 22.3467 107.164 22.24C106.577 22.1333 106.044 22.08 105.564 22.08C104.177 22.08 102.951 22.4 101.884 23.04C100.817 23.68 99.9907 24.5733 99.4041 25.72C98.8174 26.84 98.5241 28.0933 98.5241 29.48C98.5241 30.8933 98.8041 32.16 99.3641 33.28C99.9507 34.4 100.764 35.28 101.804 35.92C102.844 36.56 104.031 36.88 105.364 36.88C106.751 36.88 107.871 36.6667 108.724 36.24C108.911 36.1333 109.164 35.96 109.484 35.72C109.751 35.5067 109.977 35.3467 110.164 35.24C110.377 35.1333 110.631 35.08 110.924 35.08C111.457 35.08 111.871 35.2533 112.164 35.6C112.484 35.92 112.644 36.3467 112.644 36.88C112.644 37.44 112.284 38 111.564 38.56C110.871 39.0933 109.924 39.5333 108.724 39.88C107.551 40.2267 106.284 40.4 104.924 40.4C102.897 40.4 101.111 39.9333 99.5641 39C98.0174 38.04 96.8174 36.7333 95.9641 35.08C95.1374 33.4 94.7241 31.5333 94.7241 29.48C94.7241 27.4267 95.1641 25.5733 96.0441 23.92C96.9241 22.24 98.1507 20.9333 99.7241 20C101.297 19.04 103.097 18.56 105.124 18.56Z" fill="black"/>
<path d="M136.991 13.64C137.631 13.9867 137.951 14.52 137.951 15.24C137.951 15.72 137.791 16.16 137.471 16.56C137.151 16.9867 136.711 17.2 136.151 17.2C135.778 17.2 135.418 17.1067 135.071 16.92C133.418 15.9867 131.631 15.52 129.711 15.52C127.711 15.52 125.938 15.96 124.391 16.84C122.871 17.72 121.684 18.96 120.831 20.56C119.978 22.1333 119.551 23.9467 119.551 26C119.551 28.2133 119.991 30.12 120.871 31.72C121.751 33.32 122.964 34.5467 124.511 35.4C126.058 36.2267 127.791 36.64 129.711 36.64C131.684 36.64 133.471 36.16 135.071 35.2C135.391 35.04 135.738 34.96 136.111 34.96C136.698 34.96 137.164 35.1867 137.511 35.64C137.831 36.04 137.991 36.4667 137.991 36.92C137.991 37.24 137.898 37.5467 137.711 37.84C137.551 38.1067 137.324 38.32 137.031 38.48C135.991 39.0667 134.818 39.5333 133.511 39.88C132.231 40.2267 130.964 40.4 129.711 40.4C127.124 40.4 124.738 39.8267 122.551 38.68C120.391 37.5333 118.658 35.8667 117.351 33.68C116.071 31.4933 115.431 28.9333 115.431 26C115.431 23.3067 116.044 20.88 117.271 18.72C118.524 16.5333 120.231 14.8267 122.391 13.6C124.578 12.3467 127.018 11.72 129.711 11.72C132.298 11.72 134.724 12.36 136.991 13.64ZM146.179 38.08C146.179 38.6133 145.992 39.0667 145.619 39.44C145.245 39.8133 144.792 40 144.259 40C143.725 40 143.272 39.8133 142.899 39.44C142.552 39.0667 142.379 38.6133 142.379 38.08V12.32C142.379 11.7867 142.565 11.3333 142.939 10.96C143.312 10.5867 143.765 10.4 144.299 10.4C144.832 10.4 145.272 10.5867 145.619 10.96C145.992 11.3333 146.179 11.7867 146.179 12.32V38.08ZM167.581 19.04C168.141 19.04 168.594 19.2267 168.941 19.6C169.314 19.9733 169.501 20.4267 169.501 20.96V31.6C169.501 34.3733 168.727 36.5333 167.181 38.08C165.661 39.6 163.501 40.36 160.701 40.36C157.927 40.36 155.781 39.6 154.261 38.08C152.741 36.5333 151.981 34.3733 151.981 31.6V20.96C151.981 20.4267 152.154 19.9733 152.501 19.6C152.874 19.2267 153.327 19.04 153.861 19.04C154.421 19.04 154.874 19.2267 155.221 19.6C155.594 19.9733 155.781 20.4267 155.781 20.96V31.6C155.781 35.0933 157.421 36.84 160.701 36.84C162.327 36.84 163.567 36.4 164.421 35.52C165.274 34.64 165.701 33.3333 165.701 31.6V20.96C165.701 20.4267 165.874 19.9733 166.221 19.6C166.594 19.2267 167.047 19.04 167.581 19.04ZM185.704 18.56C187.517 18.56 189.157 19.0267 190.624 19.96C192.09 20.8933 193.237 22.1867 194.064 23.84C194.917 25.4933 195.344 27.36 195.344 29.44C195.344 31.52 194.917 33.4 194.064 35.08C193.237 36.76 192.09 38.0667 190.624 39C189.157 39.9333 187.544 40.4 185.784 40.4C184.397 40.4 183.104 40.0933 181.904 39.48C180.704 38.8667 179.73 38.1067 178.984 37.2V38.36C178.984 38.8933 178.797 39.3467 178.424 39.72C178.077 40.0933 177.624 40.28 177.064 40.28C176.53 40.28 176.077 40.1067 175.704 39.76C175.357 39.3867 175.184 38.92 175.184 38.36V12.32C175.184 11.76 175.357 11.3067 175.704 10.96C176.05 10.5867 176.504 10.4 177.064 10.4C177.624 10.4 178.077 10.5867 178.424 10.96C178.797 11.3333 178.984 11.7867 178.984 12.32V22.08C179.624 21.12 180.557 20.2933 181.784 19.6C183.01 18.9067 184.317 18.56 185.704 18.56ZM185.264 36.88C186.49 36.88 187.597 36.56 188.584 35.92C189.57 35.2533 190.33 34.36 190.864 33.24C191.424 32.0933 191.704 30.8267 191.704 29.44C191.704 28.0533 191.424 26.8 190.864 25.68C190.33 24.56 189.57 23.68 188.584 23.04C187.597 22.4 186.49 22.08 185.264 22.08C184.01 22.08 182.89 22.4 181.904 23.04C180.917 23.68 180.144 24.56 179.584 25.68C179.05 26.7733 178.784 28.0267 178.784 29.44C178.784 30.8533 179.05 32.12 179.584 33.24C180.144 34.36 180.917 35.2533 181.904 35.92C182.89 36.56 184.01 36.88 185.264 36.88Z" fill="#19D3DA"/>
</svg>
